<svg width="24" height="24" viewBox="0 0 24 24" fill="none" xmlns="http://www.w3.org/2000/svg">
  <path d="M12 12m-2 0a2 2 0 1 0 4 0 2 2 0 1 0-4 0" stroke="white" opacity="0.5" stroke-width="2" stroke-linecap="round" stroke-linejoin="round" fill="none"/>
  <path d="M6 6m-1 0a1 1 0 1 0 2 0 1 1 0 1 0-2 0" stroke="white" opacity="0.5" stroke-width="2" stroke-linecap="round" stroke-linejoin="round" fill="none"/>
  <path d="M18 6m-1 0a1 1 0 1 0 2 0 1 1 0 1 0-2 0" stroke="white" opacity="0.5" stroke-width="2" stroke-linecap="round" stroke-linejoin="round" fill="none"/>
  <path d="M6 18m-1 0a1 1 0 1 0 2 0 1 1 0 1 0-2 0" stroke="white" opacity="0.5" stroke-width="2" stroke-linecap="round" stroke-linejoin="round" fill="none"/>
  <path d="M18 18m-1 0a1 1 0 1 0 2 0 1 1 0 1 0-2 0" stroke="white" opacity="0.5" stroke-width="2" stroke-linecap="round" stroke-linejoin="round" fill="none"/>
  <path d="M3 3m-1 0a1 1 0 1 0 2 0 1 1 0 1 0-2 0" stroke="white" opacity="0.5" stroke-width="2" stroke-linecap="round" stroke-linejoin="round" fill="none"/>
  <path d="M21 21m-1 0a1 1 0 1 0 2 0 1 1 0 1 0-2 0" stroke="white" opacity="0.5" stroke-width="2" stroke-linecap="round" stroke-linejoin="round" fill="none"/>
</svg>